<?xml version="1.0" encoding="utf-8"?>
<!-- Generator: Adobe Illustrator 16.0.0, SVG Export Plug-In . SVG Version: 6.00 Build 0)  -->
<!DOCTYPE svg PUBLIC "-//W3C//DTD SVG 1.1//EN" "http://www.w3.org/Graphics/SVG/1.1/DTD/svg11.dtd">
<svg version="1.1" id="Layer_1" xmlns="http://www.w3.org/2000/svg" xmlns:xlink="http://www.w3.org/1999/xlink" x="0px" y="0px"
	 width="525.667px" height="57px" viewBox="-274.167 0 525.667 57" enable-background="new -274.167 0 525.667 57"
	 xml:space="preserve">
<g>
	<g>
		<g>
			<defs>
				<rect id="SVGID_1_" x="1" y="0.923" width="146.834" height="55.002"/>
			</defs>
			<clipPath id="SVGID_2_">
				<use xlink:href="#SVGID_1_"  overflow="visible"/>
			</clipPath>
			<g clip-path="url(#SVGID_2_)">
				<g>
					<defs>
						<rect id="SVGID_3_" x="-1.042" y="-0.404" width="150.787" height="57.644"/>
					</defs>
					<defs>
						<rect id="SVGID_4_" x="-1.042" y="-0.404" width="150.787" height="57.644"/>
					</defs>
					<defs>
						<rect id="SVGID_5_" x="-1.042" y="-0.404" width="150.787" height="57.644"/>
					</defs>
					<defs>
						<rect id="SVGID_6_" x="-1.042" y="-0.404" width="150.787" height="57.644"/>
					</defs>
					<defs>
						<rect id="SVGID_7_" x="-1.042" y="-0.404" width="150.787" height="57.644"/>
					</defs>
					<clipPath id="SVGID_8_">
						<use xlink:href="#SVGID_3_"  overflow="visible"/>
					</clipPath>
					<clipPath id="SVGID_9_" clip-path="url(#SVGID_8_)">
						<use xlink:href="#SVGID_4_"  overflow="visible"/>
					</clipPath>
					<clipPath id="SVGID_10_" clip-path="url(#SVGID_9_)">
						<use xlink:href="#SVGID_5_"  overflow="visible"/>
					</clipPath>
					<clipPath id="SVGID_11_" clip-path="url(#SVGID_10_)">
						<use xlink:href="#SVGID_6_"  overflow="visible"/>
					</clipPath>
					<clipPath id="SVGID_12_" clip-path="url(#SVGID_11_)">
						<use xlink:href="#SVGID_7_"  overflow="visible"/>
					</clipPath>
					<path clip-path="url(#SVGID_12_)" fill="#007799" d="M143.626,48.158c-3.051,4.248-9.079,7.768-16.204,7.768
						c-9.279,0-18.334-7.422-18.334-19.967v-0.146c0-12.621,9.129-19.895,18.334-19.895c7.051,0,11.579,3.934,14.697,8.537V0.923
						h5.715v34.851C147.834,35.773,147.887,42.227,143.626,48.158 M128.46,50.805c7.127,0,13.881-5.938,13.881-14.846v-0.146
						c0-8.761-6.754-14.772-13.881-14.772c-7.272,0-13.509,5.79-13.509,14.846v0.149C114.951,45.312,121.037,50.805,128.46,50.805"
						/>
					<path clip-path="url(#SVGID_12_)" fill="#007799" d="M39.796,35.811c0-12.62-9.185-19.894-18.389-19.894
						c-7.052,0-11.454,3.934-14.753,8.536V1.167H1v34.606c0,0-0.091,6.453,4.169,12.385c3.051,4.248,9.124,7.768,16.249,7.768
						c9.279,0,18.378-7.422,18.378-19.967V35.811z M33.828,36.034c0,9.278-6.057,14.771-13.479,14.771
						c-7.126,0-13.851-5.938-13.851-14.846v-0.146c0-8.761,6.725-14.772,13.851-14.772c7.274,0,13.479,5.79,13.479,14.846V36.034z"
						/>
					<path clip-path="url(#SVGID_12_)" fill="#007799" d="M109.088,18.578c-0.345-1.322-1.562-2.3-3.014-2.3
						c-0.19,0-0.374,0.019-0.555,0.051c-0.043,0.007-0.043,0.016-0.086,0.025c-5.461,1.103-9.721,5.146-11.92,10.4V16.716h-5.654
						v38.325h5.654V39.818c0-10.521,5.594-16.444,12.913-17.44c1.298-0.142,2.372-1.07,2.688-2.284
						c0.062-0.243,0.086-0.496,0.086-0.758C109.202,19.074,109.15,18.82,109.088,18.578"/>
					<polygon clip-path="url(#SVGID_12_)" fill="#F67C00" points="54.218,1.167 39.67,55.041 50.953,55.041 65.502,1.167 					"/>
					<polygon clip-path="url(#SVGID_12_)" fill="#F67C00" points="76.633,1.167 62.084,55.041 73.366,55.041 87.916,1.167 					"/>
				</g>
			</g>
		</g>
	</g>
</g>
<text transform="matrix(0.9955 0 0 1 -274.1665 55.2578)" fill="#007799" font-family="'Gotham-Book'" font-size="74">ballard research &amp; debvelopment</text>
</svg>
